# xmcd CD database file
#
# Track frame offsets:
#	150
#	12106
#	24595
#	37465
#	50457
#	63632
#	78029
#	92670
#	105570
#	117470
#	129962
#	141051
#	155173
#	168094
#	182829
#	195485
#	208766
#	221613
#	234903
#	247157
#
# Disc length: 3473 seconds
#
# Revision: 0
# Processed by: cddbd v1.5.2PL0 Copyright (c) Steve Scherf et al.
# Submitted via: CDex 1.51
#
DISCID=170d8f14
DTITLE=Gene Autry - Back in the Saddle Again
DYEAR=2005
DGENRE=Country
TTITLE0=Back in the Saddle Again
TTITLE1=Any Old Time
TTITLE2=High Steppin' Mama Blues
TTITLE3=That Silver Haired Daddy of Mine
TTITLE4=Ridin' Down the Canyon
TTITLE5=Mexicali Rose
TTITLE6=Blue Hawaii
TTITLE7=South of the Border (Down Mexico Way)
TTITLE8=Blueberry Hill
TTITLE9=Be Honest with Me
TTITLE10=You Are My Sunshine
TTITLE11=The Old Trail
TTITLE12=Lonely River
TTITLE13=The Last Roundup
TTITLE14=Have I Told You Lately That I Love You
TTITLE15=If Today Were the End of the World
TTITLE16=Dear Old Western Skies
TTITLE17=Texas Plains
TTITLE18=When Golden Leaves Are Falling
TTITLE19=Guns and Guitars
EXTD=YEAR: 2005
EXTT0=
EXTT1=
EXTT2=
EXTT3=
EXTT4=
EXTT5=
EXTT6=
EXTT7=
EXTT8=
EXTT9=
EXTT10=
EXTT11=
EXTT12=
EXTT13=
EXTT14=
EXTT15=
EXTT16=
EXTT17=
EXTT18=
EXTT19=
PLAYORDER=
